<svg xmlns="http://www.w3.org/2000/svg" width="260pt" height="260pt" version="1" viewBox="0 0 260.000000 260.000000"><path d="M119 5.6c-1.4.2-5.9.9-10 1.5-22 3.2-45.8 15.3-63.9 32.3C28 55.6 14.3 81.4 9.9 106c-1.9 10.1-1.9 43.2 0 52.5 9.4 47.7 44.5 84.8 91.4 96.6 11.8 3 36.9 3.7 49.2 1.5 50.7-9.4 89.6-48.1 99-98.5 2-11.1 2-39.7 0-51.7-8.5-49.5-46.2-88.3-96-98.9-7-1.5-29.7-2.8-34.5-1.9zm39.8 57.9l8.2 2.8v36.9l-2.5-1.6c-1.4-.9-3.5-2.3-4.8-3.1-1.2-.8-5.1-2.2-8.7-3.1-16.1-4.1-31.3 2.5-37.9 16.6-2.2 4.6-2.6 6.9-2.6 14.5 0 7.8.4 9.7 2.8 14.7 5.2 10.7 15.6 17 28 17.1 8.4 0 15.8-2.1 21.6-6.4l4.1-2.9v36.8l-5.2 2.2c-11.9 5.1-30.1 6.1-44.3 2.5-21.5-5.5-39.3-22.9-46.1-45-2.9-9.3-2.6-29.7.4-38.9 8-24 24.8-39.9 47.8-45 10.9-2.5 28.7-1.6 39.2 1.9z"/></svg>