<svg xmlns="http://www.w3.org/2000/svg" width="120.9" height="129.2" preserveAspectRatio="none"><linearGradient id="a" x1="226.859" x2="210.54" y1="-155.506" y2="-123.479" gradientUnits="userSpaceOnUse" gradientTransform="matrix(1 0 0 -1 -124.695 -77.601)"><stop offset="0" stop-color="#FCD08F"/><stop offset="1" stop-color="#F79673"/></linearGradient><path fill="url(#a)" d="M89.2 84.5c15.3-8.4 27-14.8 28-15.3 3.2-1.7 6.5-6.2 0-9.7-2.1-1.1-13.4-7.3-28-15.3L69.1 64.4s20.1 20.1 20.1 20.1z"/><linearGradient id="b" x1="203.13" x2="140.995" y1="-150.739" y2="-217.37" gradientUnits="userSpaceOnUse" gradientTransform="matrix(1 0 0 -1 -124.695 -77.601)"><stop offset="0" stop-color="#E74047"/><stop offset="1" stop-color="#7F50A0"/></linearGradient><path fill="url(#b)" d="M69.1 64.4L4.9 129.1c1.5.2 3.2-.2 5.2-1.3 4.2-2.3 48.8-26.7 79.1-43.3L69.1 64.4z"/><linearGradient id="c" x1="203.461" x2="140.339" y1="-132.669" y2="-67.306" gradientUnits="userSpaceOnUse" gradientTransform="matrix(1 0 0 -1 -124.695 -77.601)"><stop offset="0" stop-color="#E6FFAB"/><stop offset="1" stop-color="#47BEBC"/></linearGradient><path fill="url(#c)" d="M69.1 64.4l20.1-20.2S14.6 3.5 10.1 1.1C8.4.1 6.5-.2 4.8.1l64.3 64.3z"/><linearGradient id="d" x1="159.237" x2="159.237" y1="-206.717" y2="-77.75" gradientUnits="userSpaceOnUse" gradientTransform="matrix(1 0 0 -1 -124.695 -77.601)"><stop offset="0" stop-color="#84E9DB"/><stop offset="1" stop-color="#197491"/></linearGradient><path fill="url(#d)" d="M69.1 64.4L4.8.1C2.2.7 0 3 0 7.7c0 7.5 0 107.5 0 113.8 0 4.3 1.7 7.4 4.9 7.7l64.2-64.8z"/></svg>